<?xml version="1.0" encoding="UTF-8"?>
<svg id="_レイヤー_2" data-name="レイヤー_2" xmlns="http://www.w3.org/2000/svg" xmlns:xlink="http://www.w3.org/1999/xlink" viewBox="0 0 226.66 76.86">
  <defs>
    <style>
      .cls-1 {
        fill: none;
      }

      .cls-2 {
        fill: #627962;
      }

      .cls-3 {
        stroke: #000;
        stroke-miterlimit: 10;
        stroke-width: .75px;
      }

      .cls-4 {
        clip-path: url(#clippath);
      }

      .cls-5 {
        fill: url(#_名称未設定グラデーション_50);
      }
    </style>
    <radialGradient id="_名称未設定グラデーション_50" data-name="名称未設定グラデーション 50" cx="180.33" cy="49.08" fx="180.33" fy="49.08" r="24.55" gradientUnits="userSpaceOnUse">
      <stop offset="0" stop-color="#fff"/>
      <stop offset=".48" stop-color="#fdfdfd"/>
      <stop offset=".65" stop-color="#f6f6f6"/>
      <stop offset=".77" stop-color="#eaeaea"/>
      <stop offset=".87" stop-color="#d9d9d9"/>
      <stop offset=".95" stop-color="#c3c3c3"/>
      <stop offset="1" stop-color="#b3b3b3"/>
    </radialGradient>
    <clipPath id="clippath">
      <circle class="cls-1" cx="182.27" cy="50.17" r="24.55"/>
    </clipPath>
  </defs>
  <g id="logo">
    <g>
      <g>
        <circle class="cls-5" cx="182.27" cy="50.17" r="24.55"/>
        <g class="cls-4">
          <g>
            <g>
              <polygon class="cls-2" points="176.8 58.76 173.44 49.24 182.27 43.33 191.09 49.24 187.73 58.76 176.8 58.76"/>
              <path d="M182.27,43.78l8.37,5.6-3.17,8.99h-10.4l-3.17-8.99,8.37-5.6M182.27,42.88l-9.27,6.21,3.54,10.04h11.46l3.54-10.04-9.27-6.21h0Z"/>
            </g>
            <g>
              <polygon class="cls-2" points="162.52 68.84 163.78 61.53 173.35 63.28 177.97 71.84 171.41 75.3 162.52 68.84"/>
              <path d="M164.09,61.97l9.02,1.65,4.35,8.07-6.02,3.18-8.52-6.19,1.16-6.71M163.48,61.09l-1.37,7.91,9.27,6.74,7.1-3.75-4.89-9.05-10.12-1.85h0Z"/>
            </g>
            <g>
              <polygon class="cls-2" points="196.69 46.32 197.99 36.68 205.33 37.73 208.73 48.19 203.41 53.36 196.69 46.32"/>
              <path d="M198.31,37.1l6.74.97,3.25,10.01-4.88,4.74-6.33-6.64,1.22-9.09M197.67,36.25l-1.37,10.2,7.1,7.44,5.76-5.6-3.54-10.9-7.95-1.14h0Z"/>
            </g>
            <g>
              <polygon class="cls-2" points="155.81 48.19 159.21 37.73 166.55 36.68 167.84 46.32 161.13 53.36 155.81 48.19"/>
              <path d="M166.23,37.1l1.22,9.09-6.33,6.64-4.88-4.74,3.25-10.01,6.74-.97M166.87,36.25l-7.95,1.14-3.54,10.9,5.76,5.6,7.1-7.44-1.37-10.2h0Z"/>
            </g>
            <g>
              <polygon class="cls-2" points="173.5 31.63 176.77 24.97 187.77 24.97 191.04 31.63 182.27 35.84 173.5 31.63"/>
              <path d="M187.53,25.35l3,6.11-8.27,3.97-8.27-3.97,3-6.11h10.53M188,24.6h-11.46l-3.54,7.21,9.27,4.45,9.27-4.45-3.54-7.21h0Z"/>
            </g>
            <g>
              <polygon class="cls-2" points="186.56 71.84 191.18 63.28 200.75 61.53 202.02 68.84 193.12 75.3 186.56 71.84"/>
              <path d="M200.45,61.97l1.16,6.71-8.52,6.19-6.02-3.18,4.35-8.07,9.02-1.65M201.06,61.09l-10.12,1.85-4.89,9.05,7.1,3.75,9.27-6.74-1.37-7.91h0Z"/>
            </g>
            <line class="cls-3" x1="173.05" y1="31.84" x2="166.86" y2="36.26"/>
            <line class="cls-3" x1="191.15" y1="31.58" x2="198.04" y2="36.52"/>
            <line class="cls-3" x1="203.52" y1="53.48" x2="200.87" y2="61.43"/>
            <line class="cls-3" x1="186.56" y1="72.03" x2="177.91" y2="72.03"/>
            <line class="cls-3" x1="163.6" y1="61.61" x2="160.95" y2="53.3"/>
            <line class="cls-3" x1="166.25" y1="36.7" x2="173.84" y2="31.22"/>
            <line class="cls-3" x1="182.32" y1="36.17" x2="182.32" y2="42.88"/>
            <line class="cls-3" x1="191.15" y1="49.24" x2="196.63" y2="46.24"/>
            <line class="cls-3" x1="187.8" y1="58.78" x2="190.98" y2="63.02"/>
            <line class="cls-3" x1="176.85" y1="58.6" x2="173.31" y2="63.55"/>
            <line class="cls-3" x1="173.31" y1="49.24" x2="168.19" y2="46.41"/>
          </g>
        </g>
      </g>
      <g>
        <path class="cls-2" d="M28.07,72.85H0v-2.87c2.62,0,4.58-.19,5.89-.57,1.31-.38,2.2-1.16,2.68-2.35.48-1.18.72-2.95.72-5.32V20.73c0-2.24-.29-3.91-.86-5.03-.57-1.12-1.55-1.88-2.92-2.3-1.37-.41-3.21-.62-5.51-.62v-2.87h50.97l.57,15.71h-3.07c-.45-2.3-.91-4.18-1.39-5.65-.48-1.47-1.2-2.62-2.16-3.45-.96-.83-2.35-1.42-4.17-1.77-1.82-.35-4.3-.53-7.42-.53h-15.23v24.24h11.31c2.74,0,4.85-.25,6.32-.77,1.47-.51,2.47-1.45,3.02-2.83.54-1.37.81-3.34.81-5.89h3.26v22.23h-3.26c0-2.62-.27-4.57-.81-5.84-.54-1.28-1.55-2.12-3.02-2.54-1.47-.41-3.58-.62-6.32-.62h-11.31v20.12c0,2.17.3,3.8.91,4.89.61,1.09,1.64,1.82,3.11,2.2,1.47.38,3.45.57,5.94.57v2.87Z"/>
        <path class="cls-2" d="M74.16,73.81c-3.96,0-7.04-1.29-9.25-3.88-2.2-2.59-3.31-7.14-3.31-13.65v-19.45c0-1.72-.18-2.99-.53-3.78-.35-.8-1.01-1.31-1.96-1.53-.96-.22-2.3-.34-4.02-.34v-2.68l12.36-1.44h2.11v27.98c0,3.26.37,5.8,1.1,7.62.73,1.82,1.76,3.11,3.07,3.88,1.31.77,2.79,1.15,4.45,1.15,2.43,0,4.52-.54,6.28-1.63,1.76-1.09,3.59-2.46,5.51-4.12v-25.2c0-1.73-.22-2.97-.67-3.74-.45-.77-1.23-1.26-2.35-1.49-1.12-.22-2.7-.34-4.74-.34v-2.68l13.41-1.44h2.3v35.16c0,2.81.38,4.57,1.15,5.27.77.7,2.3,1.05,4.6,1.05h.96v2.59l-12.17,2.2h-2.11v-7.38h-.48c-1.66,1.66-3.31,3.08-4.93,4.26-1.63,1.18-3.32,2.08-5.08,2.68-1.76.61-3.66.91-5.7.91Z"/>
        <path class="cls-2" d="M132.13,72.85h-21.75v-2.78c2.87,0,4.71-.4,5.51-1.2s1.2-2.51,1.2-5.13V15.84c0-2.04-.24-3.37-.72-3.98-.48-.61-1.52-.91-3.11-.91-.64,0-1.72.06-3.26.19v-2.59l12.46-3.35h2.59v42.25h.58l12.36-12.26c.19-.19.53-.56,1.01-1.1.48-.54.72-1.2.72-1.96,0-.64-.32-1.09-.96-1.34-.64-.25-1.88-.38-3.74-.38v-2.87h20.7v2.87c-1.53,0-2.89.14-4.07.43-1.18.29-2.38.83-3.59,1.63-1.21.8-2.7,1.93-4.45,3.4-1.76,1.47-3.98,3.39-6.66,5.75l-4.79,3.93,16.86,18.97c1.53,1.72,2.79,2.99,3.78,3.78.99.8,1.96,1.29,2.92,1.49.96.19,2.11.29,3.45.29l30.73,6.79-51.9-4.01v-2.78c1.4,0,2.38-.08,2.92-.24.54-.16.81-.46.81-.91s-.11-.88-.34-1.29c-.22-.41-.46-.75-.72-1.01l-15.04-17.06h-.58v14.56c0,2.43.43,4.02,1.29,4.79.86.77,2.79,1.15,5.8,1.15v2.78Z"/>
        <path class="cls-2" d="M224.58,50.85c-.81,1.01-1.69,1.85-2.64,2.51-.96.67-2.04,1.04-3.26,1.12-1.39.09-2.41-.24-3.06-.98-.66-.74-1.07-2.45-1.24-5.14l-1.85-29.49c-.42-6.76-2.22-11.69-5.37-14.79-3.15-3.11-8.28-4.44-15.38-3.99-4.68.29-8.68,1.24-12.02,2.84-3.34,1.6-5.87,3.54-7.59,5.82-1.73,2.28-2.51,4.64-2.36,7.06.14,2.17.82,3.71,2.05,4.63,1.23.92,2.5,1.34,3.8,1.26,1.82-.11,3.19-.7,4.13-1.76.93-1.06,1.34-2.58,1.21-4.58-.24-3.9.1-6.66,1.05-8.28.94-1.62,3.27-2.56,7-2.79,3.9-.24,6.89.76,8.99,3.02,2.1,2.26,3.32,6.2,3.68,11.83l.83,5.43c.2.52.3,1.09.27,1.74l5.36,34.9s0,0,0,0c.03.12.05.23.07.35,1.13.84,2.76,1.22,4.95,1.09,3.29-.21,5.86-1.09,7.73-2.64,1.86-1.55,3.77-3.95,5.74-7.21l-2.08-1.96Z"/>
      </g>
      <path d="M71.98,21.14c1.93,0,1.93-3,0-3s-1.93,3,0,3h0Z"/>
      <path d="M79.68,20.47c1.93,0,1.93-3,0-3s-1.93,3,0,3h0Z"/>
    </g>
  </g>
</svg>